M48
;DRILL file {KiCad 4.0.1-stable} date 2018/04/09 0:15:11
;FORMAT={3:3/ absolute / metric / suppress trailing zeros}
FMAT,2
METRIC,LZ
T1C0.635
T2C0.900
T3C1.010
T4C1.510
%
G90
G05
M71
T1
X13945Y-1014
X13945Y-1117
X1395Y-1316
X1429Y-1347
X1435Y-1217
X1452Y-0934
X1477Y-1048
X1493Y-1007
X1496Y-0935
X1496Y-0952
X1506Y-098
X1506Y-1125
X1525Y-0927
X1526Y-1147
X1528Y-1085
X1539Y-1018
X154Y-1346
X1548Y-0958
X1569Y-1317
X1571Y-122
X1589Y-0943
X159Y-1049
T2
X14803Y-0925
X15057Y-0925
X15226Y-09713
X15226Y-09967
X15352Y-0918
X15352Y-09434
X1548Y-09713
X1548Y-09967
X15606Y-0918
X15606Y-09434
X15734Y-09713
X15734Y-09967
T3
X1465Y-1191
X1485Y-1191
X1505Y-1191
X1571Y-1085
X1571Y-1105
X1571Y-1125
T4
X1435Y-1252
X14469Y-12646
X14596Y-12392
X1485Y-1231
X15098Y-12392
X15231Y-12646
X1535Y-1252
T0
M30
