G04 #@! TF.FileFunction,Soldermask,Top*
%FSLAX46Y46*%
G04 Gerber Fmt 4.6, Leading zero omitted, Abs format (unit mm)*
G04 Created by KiCad (PCBNEW 4.0.1-stable) date 2018/04/09 0:13:58*
%MOMM*%
G01*
G04 APERTURE LIST*
%ADD10C,0.100000*%
%ADD11C,2.410000*%
%ADD12C,2.400000*%
%ADD13R,2.400000X2.100000*%
%ADD14C,2.400000*%
%ADD15O,2.400000X3.400000*%
%ADD16C,2.210000*%
%ADD17C,2.160000*%
%ADD18C,4.410000*%
%ADD19O,1.900000X2.400000*%
%ADD20O,2.400000X1.900000*%
%ADD21R,2.900000X0.900000*%
G04 APERTURE END LIST*
D10*
D11*
X159300000Y-92000000D03*
X159300000Y-116000000D03*
X137700000Y-116000000D03*
X137700000Y-92000000D03*
X137700000Y-136000000D03*
D12*
X148030000Y-92500000D03*
X150570000Y-92500000D03*
X157340000Y-99670000D03*
X157340000Y-97130000D03*
X152260000Y-99670000D03*
X152260000Y-97130000D03*
X154800000Y-99670000D03*
X154800000Y-97130000D03*
X153520000Y-91800000D03*
X156060000Y-91800000D03*
X153520000Y-94340000D03*
X156060000Y-94340000D03*
D13*
X140900000Y-92500000D03*
X144900000Y-92500000D03*
D14*
X153146447Y-124846447D02*
X153853553Y-125553553D01*
X143146447Y-125553553D02*
X143853553Y-124846447D01*
D15*
X148500000Y-123100000D03*
D16*
X143280000Y-129000000D03*
X153720000Y-129000000D03*
D14*
X151956447Y-126106447D02*
X152663553Y-126813553D01*
D15*
X145960000Y-123920000D03*
X150980000Y-123920000D03*
D14*
X144336447Y-126813553D02*
X145043553Y-126106447D01*
D17*
X143420000Y-129000000D03*
D18*
X148500000Y-129000000D03*
D17*
X153580000Y-129000000D03*
D11*
X142500000Y-104500000D03*
X154500000Y-116500000D03*
X142500000Y-116500000D03*
D19*
X146500000Y-119100000D03*
X150500000Y-119100000D03*
D20*
X157100000Y-108500000D03*
X157100000Y-112500000D03*
D19*
X148500000Y-119100000D03*
D20*
X157100000Y-110500000D03*
D11*
X154500000Y-104500000D03*
D21*
X139450000Y-95690000D03*
X139450000Y-96960000D03*
X139450000Y-98230000D03*
X139450000Y-99500000D03*
X147350000Y-99500000D03*
X147350000Y-98230000D03*
X147350000Y-96960000D03*
X147350000Y-95690000D03*
D11*
X159300000Y-136000000D03*
M02*
