G04 #@! TF.FileFunction,Legend,Top*
%FSLAX46Y46*%
G04 Gerber Fmt 4.6, Leading zero omitted, Abs format (unit mm)*
G04 Created by KiCad (PCBNEW 4.0.1-stable) date 2018/04/09 0:13:58*
%MOMM*%
G01*
G04 APERTURE LIST*
%ADD10C,0.100000*%
%ADD11C,0.120000*%
%ADD12C,0.150000*%
%ADD13C,2.410000*%
%ADD14C,2.400000*%
%ADD15R,2.400000X2.100000*%
%ADD16C,2.400000*%
%ADD17O,2.400000X3.400000*%
%ADD18C,2.210000*%
%ADD19C,2.160000*%
%ADD20C,4.410000*%
%ADD21O,1.900000X2.400000*%
%ADD22O,2.400000X1.900000*%
%ADD23R,2.900000X0.900000*%
G04 APERTURE END LIST*
D10*
D11*
X143900000Y-93570000D02*
X141900000Y-93570000D01*
X141900000Y-91430000D02*
X143900000Y-91430000D01*
D12*
X139500000Y-120500000D02*
X139500000Y-137500000D01*
X157500000Y-120500000D02*
X157500000Y-137500000D01*
X139500000Y-137500000D02*
X157500000Y-137500000D01*
X139500000Y-120500000D02*
X157500000Y-120500000D01*
X157250000Y-101750000D02*
X139750000Y-101750000D01*
X157250000Y-119250000D02*
X139750000Y-119250000D01*
X157250000Y-101750000D02*
X157250000Y-119250000D01*
X139750000Y-101750000D02*
X139750000Y-119250000D01*
X147550000Y-100300000D02*
X147550000Y-94900000D01*
X139250000Y-100300000D02*
X139250000Y-94900000D01*
X147550000Y-94900000D02*
X139250000Y-94900000D01*
X146100000Y-100300000D02*
X146100000Y-94900000D01*
X140700000Y-100300000D02*
X140700000Y-94900000D01*
X147550000Y-100300000D02*
X139250000Y-100300000D01*
%LPC*%
D13*
X159300000Y-92000000D03*
X159300000Y-116000000D03*
X137700000Y-116000000D03*
X137700000Y-92000000D03*
X137700000Y-136000000D03*
D14*
X148030000Y-92500000D03*
X150570000Y-92500000D03*
X157340000Y-99670000D03*
X157340000Y-97130000D03*
X152260000Y-99670000D03*
X152260000Y-97130000D03*
X154800000Y-99670000D03*
X154800000Y-97130000D03*
X153520000Y-91800000D03*
X156060000Y-91800000D03*
X153520000Y-94340000D03*
X156060000Y-94340000D03*
D15*
X140900000Y-92500000D03*
X144900000Y-92500000D03*
D16*
X153146447Y-124846447D02*
X153853553Y-125553553D01*
X143146447Y-125553553D02*
X143853553Y-124846447D01*
D17*
X148500000Y-123100000D03*
D18*
X143280000Y-129000000D03*
X153720000Y-129000000D03*
D16*
X151956447Y-126106447D02*
X152663553Y-126813553D01*
D17*
X145960000Y-123920000D03*
X150980000Y-123920000D03*
D16*
X144336447Y-126813553D02*
X145043553Y-126106447D01*
D19*
X143420000Y-129000000D03*
D20*
X148500000Y-129000000D03*
D19*
X153580000Y-129000000D03*
D13*
X142500000Y-104500000D03*
X154500000Y-116500000D03*
X142500000Y-116500000D03*
D21*
X146500000Y-119100000D03*
X150500000Y-119100000D03*
D22*
X157100000Y-108500000D03*
X157100000Y-112500000D03*
D21*
X148500000Y-119100000D03*
D22*
X157100000Y-110500000D03*
D13*
X154500000Y-104500000D03*
D23*
X139450000Y-95690000D03*
X139450000Y-96960000D03*
X139450000Y-98230000D03*
X139450000Y-99500000D03*
X147350000Y-99500000D03*
X147350000Y-98230000D03*
X147350000Y-96960000D03*
X147350000Y-95690000D03*
D13*
X159300000Y-136000000D03*
M02*
