G04 #@! TF.FileFunction,Copper,L2,Bot,Signal*
%FSLAX46Y46*%
G04 Gerber Fmt 4.6, Leading zero omitted, Abs format (unit mm)*
G04 Created by KiCad (PCBNEW 4.0.1-stable) date 2018/04/09 0:13:58*
%MOMM*%
G01*
G04 APERTURE LIST*
%ADD10C,0.100000*%
%ADD11C,2.000000*%
%ADD12C,2.000000*%
%ADD13O,2.000000X3.000000*%
%ADD14O,1.500000X2.000000*%
%ADD15O,2.000000X1.500000*%
%ADD16C,0.889000*%
%ADD17C,0.203200*%
%ADD18C,0.254000*%
G04 APERTURE END LIST*
D10*
D11*
X148030000Y-92500000D03*
X150570000Y-92500000D03*
X157340000Y-99670000D03*
X157340000Y-97130000D03*
X152260000Y-99670000D03*
X152260000Y-97130000D03*
X154800000Y-99670000D03*
X154800000Y-97130000D03*
X153520000Y-91800000D03*
X156060000Y-91800000D03*
X153520000Y-94340000D03*
X156060000Y-94340000D03*
D12*
X153146447Y-124846447D02*
X153853553Y-125553553D01*
X143146447Y-125553553D02*
X143853553Y-124846447D01*
D13*
X148500000Y-123100000D03*
D12*
X151956447Y-126106447D02*
X152663553Y-126813553D01*
D13*
X145960000Y-123920000D03*
X150980000Y-123920000D03*
D12*
X144336447Y-126813553D02*
X145043553Y-126106447D01*
D14*
X146500000Y-119100000D03*
X150500000Y-119100000D03*
D15*
X157100000Y-108500000D03*
X157100000Y-112500000D03*
D14*
X148500000Y-119100000D03*
D15*
X157100000Y-110500000D03*
D16*
X147700000Y-104800000D03*
X152600000Y-114700000D03*
X157100000Y-122000000D03*
X156900000Y-131700000D03*
X154000000Y-134600000D03*
X142900000Y-134700000D03*
X139500000Y-131600000D03*
X152800000Y-108500000D03*
X159000000Y-104900000D03*
X143500000Y-121700000D03*
X139450000Y-111700000D03*
X139450000Y-101400000D03*
X149600000Y-93500000D03*
X149600000Y-95200000D03*
X150600000Y-112500000D03*
X150600000Y-98000000D03*
X158900000Y-94300000D03*
X153900000Y-101800000D03*
X149300000Y-100700000D03*
X152500000Y-92700000D03*
X154800000Y-95800000D03*
X145200000Y-93400000D03*
D17*
X147700000Y-111500000D02*
X147700000Y-104800000D01*
X150900000Y-114700000D02*
X147700000Y-111500000D01*
X152600000Y-114700000D02*
X150900000Y-114700000D01*
X139500000Y-120000000D02*
X139500000Y-131600000D01*
X157100000Y-131500000D02*
X157100000Y-122000000D01*
X156900000Y-131700000D02*
X157100000Y-131500000D01*
X143000000Y-134600000D02*
X154000000Y-134600000D01*
X142900000Y-134700000D02*
X143000000Y-134600000D01*
X139450000Y-111700000D02*
X139500000Y-111700000D01*
X139450000Y-101400000D02*
X139500000Y-101400000D01*
X149600000Y-93500000D02*
X149600000Y-95200000D01*
X150600000Y-98000000D02*
X150600000Y-112500000D01*
X158900000Y-94300000D02*
X159500000Y-94900000D01*
X159500000Y-94900000D02*
X159500000Y-100700000D01*
X159500000Y-100700000D02*
X158400000Y-101800000D01*
X158400000Y-101800000D02*
X153900000Y-101800000D01*
X149300000Y-100700000D02*
X149300000Y-96900000D01*
X149300000Y-96900000D02*
X151100000Y-95100000D01*
X151100000Y-95100000D02*
X151900000Y-95100000D01*
X152500000Y-92700000D02*
X151900000Y-93300000D01*
X151900000Y-93300000D02*
X151900000Y-95100000D01*
X151900000Y-95100000D02*
X152600000Y-95800000D01*
X152600000Y-95800000D02*
X154800000Y-95800000D01*
X153500000Y-118900000D02*
X153500000Y-125200000D01*
X145100000Y-110500000D02*
X153500000Y-118900000D01*
X145100000Y-93500000D02*
X145100000Y-110500000D01*
X145200000Y-93400000D02*
X145100000Y-93500000D01*
D18*
G36*
X146644722Y-91572637D02*
X146395284Y-92173352D01*
X146394716Y-92823795D01*
X146643106Y-93424943D01*
X147102637Y-93885278D01*
X147703352Y-94134716D01*
X148353795Y-94135284D01*
X148644792Y-94015046D01*
X148684311Y-94110689D01*
X148863400Y-94290091D01*
X148863400Y-94410002D01*
X148685378Y-94587714D01*
X148520687Y-94984332D01*
X148520313Y-95413784D01*
X148684311Y-95810689D01*
X148987714Y-96114622D01*
X149027251Y-96131039D01*
X148779145Y-96379145D01*
X148619470Y-96618115D01*
X148563400Y-96900000D01*
X148563400Y-99910002D01*
X148385378Y-100087714D01*
X148220687Y-100484332D01*
X148220313Y-100913784D01*
X148384311Y-101310689D01*
X148687714Y-101614622D01*
X149084332Y-101779313D01*
X149513784Y-101779687D01*
X149863400Y-101635228D01*
X149863400Y-111710002D01*
X149685378Y-111887714D01*
X149520687Y-112284332D01*
X149520313Y-112713784D01*
X149684311Y-113110689D01*
X149987714Y-113414622D01*
X150384332Y-113579313D01*
X150813784Y-113579687D01*
X151210689Y-113415689D01*
X151514622Y-113112286D01*
X151679313Y-112715668D01*
X151679687Y-112286216D01*
X151515689Y-111889311D01*
X151336600Y-111709909D01*
X151336600Y-110500000D01*
X155432968Y-110500000D01*
X155538395Y-111030017D01*
X155838625Y-111479343D01*
X155869540Y-111500000D01*
X155838625Y-111520657D01*
X155538395Y-111969983D01*
X155432968Y-112500000D01*
X155538395Y-113030017D01*
X155838625Y-113479343D01*
X156287951Y-113779573D01*
X156817968Y-113885000D01*
X157382032Y-113885000D01*
X157912049Y-113779573D01*
X158361375Y-113479343D01*
X158661605Y-113030017D01*
X158767032Y-112500000D01*
X158661605Y-111969983D01*
X158361375Y-111520657D01*
X158330460Y-111500000D01*
X158361375Y-111479343D01*
X158661605Y-111030017D01*
X158767032Y-110500000D01*
X158661605Y-109969983D01*
X158361375Y-109520657D01*
X158311546Y-109487362D01*
X158402736Y-109416894D01*
X158673481Y-108944235D01*
X158692318Y-108841185D01*
X158569656Y-108627000D01*
X157227000Y-108627000D01*
X157227000Y-108647000D01*
X156973000Y-108647000D01*
X156973000Y-108627000D01*
X155630344Y-108627000D01*
X155507682Y-108841185D01*
X155526519Y-108944235D01*
X155797264Y-109416894D01*
X155888454Y-109487362D01*
X155838625Y-109520657D01*
X155538395Y-109969983D01*
X155432968Y-110500000D01*
X151336600Y-110500000D01*
X151336600Y-108158815D01*
X155507682Y-108158815D01*
X155630344Y-108373000D01*
X156973000Y-108373000D01*
X156973000Y-107268132D01*
X157227000Y-107268132D01*
X157227000Y-108373000D01*
X158569656Y-108373000D01*
X158692318Y-108158815D01*
X158673481Y-108055765D01*
X158402736Y-107583106D01*
X157971721Y-107250036D01*
X157446055Y-107107261D01*
X157227000Y-107268132D01*
X156973000Y-107268132D01*
X156753945Y-107107261D01*
X156228279Y-107250036D01*
X155797264Y-107583106D01*
X155526519Y-108055765D01*
X155507682Y-108158815D01*
X151336600Y-108158815D01*
X151336600Y-104824785D01*
X152859716Y-104824785D01*
X153108865Y-105427771D01*
X153569802Y-105889513D01*
X154172353Y-106139714D01*
X154824785Y-106140284D01*
X155427771Y-105891135D01*
X155889513Y-105430198D01*
X156139714Y-104827647D01*
X156140284Y-104175215D01*
X155891135Y-103572229D01*
X155430198Y-103110487D01*
X154827647Y-102860286D01*
X154175215Y-102859716D01*
X153572229Y-103108865D01*
X153110487Y-103569802D01*
X152860286Y-104172353D01*
X152859716Y-104824785D01*
X151336600Y-104824785D01*
X151336600Y-101056924D01*
X151933352Y-101304716D01*
X152583795Y-101305284D01*
X153068038Y-101105198D01*
X152985378Y-101187714D01*
X152820687Y-101584332D01*
X152820313Y-102013784D01*
X152984311Y-102410689D01*
X153287714Y-102714622D01*
X153684332Y-102879313D01*
X154113784Y-102879687D01*
X154510689Y-102715689D01*
X154690091Y-102536600D01*
X158400000Y-102536600D01*
X158681885Y-102480530D01*
X158920855Y-102320855D01*
X159895491Y-101346219D01*
X159924050Y-114483363D01*
X159627647Y-114360286D01*
X158975215Y-114359716D01*
X158372229Y-114608865D01*
X157910487Y-115069802D01*
X157660286Y-115672353D01*
X157659716Y-116324785D01*
X157908865Y-116927771D01*
X158369802Y-117389513D01*
X158972353Y-117639714D01*
X159624785Y-117640284D01*
X159930638Y-117513908D01*
X159967567Y-134501433D01*
X159627647Y-134360286D01*
X158975215Y-134359716D01*
X158372229Y-134608865D01*
X157910487Y-135069802D01*
X157660286Y-135672353D01*
X157659716Y-136324785D01*
X157886234Y-136873000D01*
X139113264Y-136873000D01*
X139339714Y-136327647D01*
X139340284Y-135675215D01*
X139091135Y-135072229D01*
X138630198Y-134610487D01*
X138027647Y-134360286D01*
X137375215Y-134359716D01*
X137221399Y-134423271D01*
X137202182Y-125583130D01*
X141481869Y-125583130D01*
X141606327Y-126208818D01*
X141960750Y-126739250D01*
X142491182Y-127093673D01*
X142731202Y-127141416D01*
X142796327Y-127468818D01*
X142830231Y-127519559D01*
X142408800Y-127693691D01*
X141975213Y-128126521D01*
X141740268Y-128692331D01*
X141739734Y-129304981D01*
X141973691Y-129871200D01*
X142406521Y-130304787D01*
X142972331Y-130539732D01*
X143584981Y-130540266D01*
X143645650Y-130515198D01*
X143720030Y-130515263D01*
X144277058Y-130285104D01*
X144703606Y-129859299D01*
X144843322Y-129522825D01*
X145859542Y-129522825D01*
X146260612Y-130493486D01*
X147002607Y-131236778D01*
X147972568Y-131639541D01*
X149022825Y-131640458D01*
X149993486Y-131239388D01*
X150736778Y-130497393D01*
X151139541Y-129527432D01*
X151140458Y-128477175D01*
X150739388Y-127506514D01*
X149997393Y-126763222D01*
X149027432Y-126360459D01*
X147977175Y-126359542D01*
X147006514Y-126760612D01*
X146263222Y-127502607D01*
X145860459Y-128472568D01*
X145859542Y-129522825D01*
X144843322Y-129522825D01*
X144934737Y-129302674D01*
X144935263Y-128699970D01*
X144802838Y-128379476D01*
X144932558Y-128353673D01*
X145462990Y-127999250D01*
X146229249Y-127232990D01*
X146583673Y-126702558D01*
X146708130Y-126076870D01*
X146675418Y-125912414D01*
X147116120Y-125617947D01*
X147470543Y-125087514D01*
X147510069Y-124888803D01*
X147991645Y-125159144D01*
X148119566Y-125190124D01*
X148373000Y-125070777D01*
X148373000Y-123227000D01*
X148353000Y-123227000D01*
X148353000Y-122973000D01*
X148373000Y-122973000D01*
X148373000Y-121129223D01*
X148119566Y-121009876D01*
X147991645Y-121040856D01*
X147433683Y-121354078D01*
X147038058Y-121856980D01*
X146964044Y-122120440D01*
X146585687Y-121867630D01*
X145960000Y-121743173D01*
X145334313Y-121867630D01*
X144803880Y-122222053D01*
X144449457Y-122752486D01*
X144345743Y-123273890D01*
X143883130Y-123181870D01*
X143257442Y-123306327D01*
X142727010Y-123660751D01*
X141960750Y-124427010D01*
X141606327Y-124957442D01*
X141481869Y-125583130D01*
X137202182Y-125583130D01*
X137187475Y-118817968D01*
X145115000Y-118817968D01*
X145115000Y-119382032D01*
X145220427Y-119912049D01*
X145520657Y-120361375D01*
X145969983Y-120661605D01*
X146500000Y-120767032D01*
X147030017Y-120661605D01*
X147479343Y-120361375D01*
X147500000Y-120330460D01*
X147520657Y-120361375D01*
X147969983Y-120661605D01*
X148500000Y-120767032D01*
X149030017Y-120661605D01*
X149479343Y-120361375D01*
X149512638Y-120311546D01*
X149583106Y-120402736D01*
X150055765Y-120673481D01*
X150158815Y-120692318D01*
X150373000Y-120569656D01*
X150373000Y-119227000D01*
X150627000Y-119227000D01*
X150627000Y-120569656D01*
X150841185Y-120692318D01*
X150944235Y-120673481D01*
X151416894Y-120402736D01*
X151749964Y-119971721D01*
X151892739Y-119446055D01*
X151731868Y-119227000D01*
X150627000Y-119227000D01*
X150373000Y-119227000D01*
X150353000Y-119227000D01*
X150353000Y-118973000D01*
X150373000Y-118973000D01*
X150373000Y-117630344D01*
X150158815Y-117507682D01*
X150055765Y-117526519D01*
X149583106Y-117797264D01*
X149512638Y-117888454D01*
X149479343Y-117838625D01*
X149030017Y-117538395D01*
X148500000Y-117432968D01*
X147969983Y-117538395D01*
X147520657Y-117838625D01*
X147500000Y-117869540D01*
X147479343Y-117838625D01*
X147030017Y-117538395D01*
X146500000Y-117432968D01*
X145969983Y-117538395D01*
X145520657Y-117838625D01*
X145220427Y-118287951D01*
X145115000Y-118817968D01*
X137187475Y-118817968D01*
X137184744Y-117561812D01*
X137372353Y-117639714D01*
X138024785Y-117640284D01*
X138627771Y-117391135D01*
X139089513Y-116930198D01*
X139133284Y-116824785D01*
X140859716Y-116824785D01*
X141108865Y-117427771D01*
X141569802Y-117889513D01*
X142172353Y-118139714D01*
X142824785Y-118140284D01*
X143427771Y-117891135D01*
X143889513Y-117430198D01*
X144139714Y-116827647D01*
X144140284Y-116175215D01*
X143891135Y-115572229D01*
X143430198Y-115110487D01*
X142827647Y-114860286D01*
X142175215Y-114859716D01*
X141572229Y-115108865D01*
X141110487Y-115569802D01*
X140860286Y-116172353D01*
X140859716Y-116824785D01*
X139133284Y-116824785D01*
X139339714Y-116327647D01*
X139340284Y-115675215D01*
X139091135Y-115072229D01*
X138630198Y-114610487D01*
X138027647Y-114360286D01*
X137375215Y-114359716D01*
X137177960Y-114441220D01*
X137157055Y-104824785D01*
X140859716Y-104824785D01*
X141108865Y-105427771D01*
X141569802Y-105889513D01*
X142172353Y-106139714D01*
X142824785Y-106140284D01*
X143427771Y-105891135D01*
X143889513Y-105430198D01*
X144139714Y-104827647D01*
X144140284Y-104175215D01*
X143891135Y-103572229D01*
X143430198Y-103110487D01*
X142827647Y-102860286D01*
X142175215Y-102859716D01*
X141572229Y-103108865D01*
X141110487Y-103569802D01*
X140860286Y-104172353D01*
X140859716Y-104824785D01*
X137157055Y-104824785D01*
X137132523Y-93540128D01*
X137372353Y-93639714D01*
X138024785Y-93640284D01*
X138088919Y-93613784D01*
X144120313Y-93613784D01*
X144284311Y-94010689D01*
X144363400Y-94089916D01*
X144363400Y-110500000D01*
X144419470Y-110781885D01*
X144579145Y-111020855D01*
X151273304Y-117715014D01*
X150944235Y-117526519D01*
X150841185Y-117507682D01*
X150627000Y-117630344D01*
X150627000Y-118973000D01*
X151731868Y-118973000D01*
X151892739Y-118753945D01*
X151749964Y-118228279D01*
X151625486Y-118067196D01*
X152763400Y-119205110D01*
X152763400Y-123252179D01*
X152596540Y-123285370D01*
X152490543Y-122752486D01*
X152136120Y-122222053D01*
X151605687Y-121867630D01*
X150980000Y-121743173D01*
X150354313Y-121867630D01*
X150026473Y-122086685D01*
X149961942Y-121856980D01*
X149566317Y-121354078D01*
X149008355Y-121040856D01*
X148880434Y-121009876D01*
X148627000Y-121129223D01*
X148627000Y-122973000D01*
X148647000Y-122973000D01*
X148647000Y-123227000D01*
X148627000Y-123227000D01*
X148627000Y-125070777D01*
X148880434Y-125190124D01*
X149008355Y-125159144D01*
X149435958Y-124919102D01*
X149469457Y-125087514D01*
X149823880Y-125617947D01*
X150317543Y-125947801D01*
X150291869Y-126076870D01*
X150416327Y-126702558D01*
X150770750Y-127232990D01*
X151537010Y-127999249D01*
X152067442Y-128353673D01*
X152197240Y-128379491D01*
X152065263Y-128697326D01*
X152064737Y-129300030D01*
X152294896Y-129857058D01*
X152720701Y-130283606D01*
X153277326Y-130514737D01*
X153352294Y-130514802D01*
X153412331Y-130539732D01*
X154024981Y-130540266D01*
X154591200Y-130306309D01*
X155024787Y-129873479D01*
X155259732Y-129307669D01*
X155260266Y-128695019D01*
X155026309Y-128128800D01*
X154593479Y-127695213D01*
X154169918Y-127519335D01*
X154203673Y-127468817D01*
X154268797Y-127141416D01*
X154508817Y-127093673D01*
X155039249Y-126739249D01*
X155393673Y-126208817D01*
X155518130Y-125583130D01*
X155393673Y-124957442D01*
X155039249Y-124427010D01*
X154272990Y-123660750D01*
X154236600Y-123636435D01*
X154236600Y-118900000D01*
X154180530Y-118618115D01*
X154020855Y-118379145D01*
X152466495Y-116824785D01*
X152859716Y-116824785D01*
X153108865Y-117427771D01*
X153569802Y-117889513D01*
X154172353Y-118139714D01*
X154824785Y-118140284D01*
X155427771Y-117891135D01*
X155889513Y-117430198D01*
X156139714Y-116827647D01*
X156140284Y-116175215D01*
X155891135Y-115572229D01*
X155430198Y-115110487D01*
X154827647Y-114860286D01*
X154175215Y-114859716D01*
X153572229Y-115108865D01*
X153110487Y-115569802D01*
X152860286Y-116172353D01*
X152859716Y-116824785D01*
X152466495Y-116824785D01*
X145836600Y-110194890D01*
X145836600Y-94289823D01*
X146114622Y-94012286D01*
X146279313Y-93615668D01*
X146279687Y-93186216D01*
X146115689Y-92789311D01*
X145812286Y-92485378D01*
X145415668Y-92320687D01*
X144986216Y-92320313D01*
X144589311Y-92484311D01*
X144285378Y-92787714D01*
X144120687Y-93184332D01*
X144120313Y-93613784D01*
X138088919Y-93613784D01*
X138627771Y-93391135D01*
X139089513Y-92930198D01*
X139339714Y-92327647D01*
X139340284Y-91675215D01*
X139113766Y-91127000D01*
X147091139Y-91127000D01*
X146644722Y-91572637D01*
X146644722Y-91572637D01*
G37*
X146644722Y-91572637D02*
X146395284Y-92173352D01*
X146394716Y-92823795D01*
X146643106Y-93424943D01*
X147102637Y-93885278D01*
X147703352Y-94134716D01*
X148353795Y-94135284D01*
X148644792Y-94015046D01*
X148684311Y-94110689D01*
X148863400Y-94290091D01*
X148863400Y-94410002D01*
X148685378Y-94587714D01*
X148520687Y-94984332D01*
X148520313Y-95413784D01*
X148684311Y-95810689D01*
X148987714Y-96114622D01*
X149027251Y-96131039D01*
X148779145Y-96379145D01*
X148619470Y-96618115D01*
X148563400Y-96900000D01*
X148563400Y-99910002D01*
X148385378Y-100087714D01*
X148220687Y-100484332D01*
X148220313Y-100913784D01*
X148384311Y-101310689D01*
X148687714Y-101614622D01*
X149084332Y-101779313D01*
X149513784Y-101779687D01*
X149863400Y-101635228D01*
X149863400Y-111710002D01*
X149685378Y-111887714D01*
X149520687Y-112284332D01*
X149520313Y-112713784D01*
X149684311Y-113110689D01*
X149987714Y-113414622D01*
X150384332Y-113579313D01*
X150813784Y-113579687D01*
X151210689Y-113415689D01*
X151514622Y-113112286D01*
X151679313Y-112715668D01*
X151679687Y-112286216D01*
X151515689Y-111889311D01*
X151336600Y-111709909D01*
X151336600Y-110500000D01*
X155432968Y-110500000D01*
X155538395Y-111030017D01*
X155838625Y-111479343D01*
X155869540Y-111500000D01*
X155838625Y-111520657D01*
X155538395Y-111969983D01*
X155432968Y-112500000D01*
X155538395Y-113030017D01*
X155838625Y-113479343D01*
X156287951Y-113779573D01*
X156817968Y-113885000D01*
X157382032Y-113885000D01*
X157912049Y-113779573D01*
X158361375Y-113479343D01*
X158661605Y-113030017D01*
X158767032Y-112500000D01*
X158661605Y-111969983D01*
X158361375Y-111520657D01*
X158330460Y-111500000D01*
X158361375Y-111479343D01*
X158661605Y-111030017D01*
X158767032Y-110500000D01*
X158661605Y-109969983D01*
X158361375Y-109520657D01*
X158311546Y-109487362D01*
X158402736Y-109416894D01*
X158673481Y-108944235D01*
X158692318Y-108841185D01*
X158569656Y-108627000D01*
X157227000Y-108627000D01*
X157227000Y-108647000D01*
X156973000Y-108647000D01*
X156973000Y-108627000D01*
X155630344Y-108627000D01*
X155507682Y-108841185D01*
X155526519Y-108944235D01*
X155797264Y-109416894D01*
X155888454Y-109487362D01*
X155838625Y-109520657D01*
X155538395Y-109969983D01*
X155432968Y-110500000D01*
X151336600Y-110500000D01*
X151336600Y-108158815D01*
X155507682Y-108158815D01*
X155630344Y-108373000D01*
X156973000Y-108373000D01*
X156973000Y-107268132D01*
X157227000Y-107268132D01*
X157227000Y-108373000D01*
X158569656Y-108373000D01*
X158692318Y-108158815D01*
X158673481Y-108055765D01*
X158402736Y-107583106D01*
X157971721Y-107250036D01*
X157446055Y-107107261D01*
X157227000Y-107268132D01*
X156973000Y-107268132D01*
X156753945Y-107107261D01*
X156228279Y-107250036D01*
X155797264Y-107583106D01*
X155526519Y-108055765D01*
X155507682Y-108158815D01*
X151336600Y-108158815D01*
X151336600Y-104824785D01*
X152859716Y-104824785D01*
X153108865Y-105427771D01*
X153569802Y-105889513D01*
X154172353Y-106139714D01*
X154824785Y-106140284D01*
X155427771Y-105891135D01*
X155889513Y-105430198D01*
X156139714Y-104827647D01*
X156140284Y-104175215D01*
X155891135Y-103572229D01*
X155430198Y-103110487D01*
X154827647Y-102860286D01*
X154175215Y-102859716D01*
X153572229Y-103108865D01*
X153110487Y-103569802D01*
X152860286Y-104172353D01*
X152859716Y-104824785D01*
X151336600Y-104824785D01*
X151336600Y-101056924D01*
X151933352Y-101304716D01*
X152583795Y-101305284D01*
X153068038Y-101105198D01*
X152985378Y-101187714D01*
X152820687Y-101584332D01*
X152820313Y-102013784D01*
X152984311Y-102410689D01*
X153287714Y-102714622D01*
X153684332Y-102879313D01*
X154113784Y-102879687D01*
X154510689Y-102715689D01*
X154690091Y-102536600D01*
X158400000Y-102536600D01*
X158681885Y-102480530D01*
X158920855Y-102320855D01*
X159895491Y-101346219D01*
X159924050Y-114483363D01*
X159627647Y-114360286D01*
X158975215Y-114359716D01*
X158372229Y-114608865D01*
X157910487Y-115069802D01*
X157660286Y-115672353D01*
X157659716Y-116324785D01*
X157908865Y-116927771D01*
X158369802Y-117389513D01*
X158972353Y-117639714D01*
X159624785Y-117640284D01*
X159930638Y-117513908D01*
X159967567Y-134501433D01*
X159627647Y-134360286D01*
X158975215Y-134359716D01*
X158372229Y-134608865D01*
X157910487Y-135069802D01*
X157660286Y-135672353D01*
X157659716Y-136324785D01*
X157886234Y-136873000D01*
X139113264Y-136873000D01*
X139339714Y-136327647D01*
X139340284Y-135675215D01*
X139091135Y-135072229D01*
X138630198Y-134610487D01*
X138027647Y-134360286D01*
X137375215Y-134359716D01*
X137221399Y-134423271D01*
X137202182Y-125583130D01*
X141481869Y-125583130D01*
X141606327Y-126208818D01*
X141960750Y-126739250D01*
X142491182Y-127093673D01*
X142731202Y-127141416D01*
X142796327Y-127468818D01*
X142830231Y-127519559D01*
X142408800Y-127693691D01*
X141975213Y-128126521D01*
X141740268Y-128692331D01*
X141739734Y-129304981D01*
X141973691Y-129871200D01*
X142406521Y-130304787D01*
X142972331Y-130539732D01*
X143584981Y-130540266D01*
X143645650Y-130515198D01*
X143720030Y-130515263D01*
X144277058Y-130285104D01*
X144703606Y-129859299D01*
X144843322Y-129522825D01*
X145859542Y-129522825D01*
X146260612Y-130493486D01*
X147002607Y-131236778D01*
X147972568Y-131639541D01*
X149022825Y-131640458D01*
X149993486Y-131239388D01*
X150736778Y-130497393D01*
X151139541Y-129527432D01*
X151140458Y-128477175D01*
X150739388Y-127506514D01*
X149997393Y-126763222D01*
X149027432Y-126360459D01*
X147977175Y-126359542D01*
X147006514Y-126760612D01*
X146263222Y-127502607D01*
X145860459Y-128472568D01*
X145859542Y-129522825D01*
X144843322Y-129522825D01*
X144934737Y-129302674D01*
X144935263Y-128699970D01*
X144802838Y-128379476D01*
X144932558Y-128353673D01*
X145462990Y-127999250D01*
X146229249Y-127232990D01*
X146583673Y-126702558D01*
X146708130Y-126076870D01*
X146675418Y-125912414D01*
X147116120Y-125617947D01*
X147470543Y-125087514D01*
X147510069Y-124888803D01*
X147991645Y-125159144D01*
X148119566Y-125190124D01*
X148373000Y-125070777D01*
X148373000Y-123227000D01*
X148353000Y-123227000D01*
X148353000Y-122973000D01*
X148373000Y-122973000D01*
X148373000Y-121129223D01*
X148119566Y-121009876D01*
X147991645Y-121040856D01*
X147433683Y-121354078D01*
X147038058Y-121856980D01*
X146964044Y-122120440D01*
X146585687Y-121867630D01*
X145960000Y-121743173D01*
X145334313Y-121867630D01*
X144803880Y-122222053D01*
X144449457Y-122752486D01*
X144345743Y-123273890D01*
X143883130Y-123181870D01*
X143257442Y-123306327D01*
X142727010Y-123660751D01*
X141960750Y-124427010D01*
X141606327Y-124957442D01*
X141481869Y-125583130D01*
X137202182Y-125583130D01*
X137187475Y-118817968D01*
X145115000Y-118817968D01*
X145115000Y-119382032D01*
X145220427Y-119912049D01*
X145520657Y-120361375D01*
X145969983Y-120661605D01*
X146500000Y-120767032D01*
X147030017Y-120661605D01*
X147479343Y-120361375D01*
X147500000Y-120330460D01*
X147520657Y-120361375D01*
X147969983Y-120661605D01*
X148500000Y-120767032D01*
X149030017Y-120661605D01*
X149479343Y-120361375D01*
X149512638Y-120311546D01*
X149583106Y-120402736D01*
X150055765Y-120673481D01*
X150158815Y-120692318D01*
X150373000Y-120569656D01*
X150373000Y-119227000D01*
X150627000Y-119227000D01*
X150627000Y-120569656D01*
X150841185Y-120692318D01*
X150944235Y-120673481D01*
X151416894Y-120402736D01*
X151749964Y-119971721D01*
X151892739Y-119446055D01*
X151731868Y-119227000D01*
X150627000Y-119227000D01*
X150373000Y-119227000D01*
X150353000Y-119227000D01*
X150353000Y-118973000D01*
X150373000Y-118973000D01*
X150373000Y-117630344D01*
X150158815Y-117507682D01*
X150055765Y-117526519D01*
X149583106Y-117797264D01*
X149512638Y-117888454D01*
X149479343Y-117838625D01*
X149030017Y-117538395D01*
X148500000Y-117432968D01*
X147969983Y-117538395D01*
X147520657Y-117838625D01*
X147500000Y-117869540D01*
X147479343Y-117838625D01*
X147030017Y-117538395D01*
X146500000Y-117432968D01*
X145969983Y-117538395D01*
X145520657Y-117838625D01*
X145220427Y-118287951D01*
X145115000Y-118817968D01*
X137187475Y-118817968D01*
X137184744Y-117561812D01*
X137372353Y-117639714D01*
X138024785Y-117640284D01*
X138627771Y-117391135D01*
X139089513Y-116930198D01*
X139133284Y-116824785D01*
X140859716Y-116824785D01*
X141108865Y-117427771D01*
X141569802Y-117889513D01*
X142172353Y-118139714D01*
X142824785Y-118140284D01*
X143427771Y-117891135D01*
X143889513Y-117430198D01*
X144139714Y-116827647D01*
X144140284Y-116175215D01*
X143891135Y-115572229D01*
X143430198Y-115110487D01*
X142827647Y-114860286D01*
X142175215Y-114859716D01*
X141572229Y-115108865D01*
X141110487Y-115569802D01*
X140860286Y-116172353D01*
X140859716Y-116824785D01*
X139133284Y-116824785D01*
X139339714Y-116327647D01*
X139340284Y-115675215D01*
X139091135Y-115072229D01*
X138630198Y-114610487D01*
X138027647Y-114360286D01*
X137375215Y-114359716D01*
X137177960Y-114441220D01*
X137157055Y-104824785D01*
X140859716Y-104824785D01*
X141108865Y-105427771D01*
X141569802Y-105889513D01*
X142172353Y-106139714D01*
X142824785Y-106140284D01*
X143427771Y-105891135D01*
X143889513Y-105430198D01*
X144139714Y-104827647D01*
X144140284Y-104175215D01*
X143891135Y-103572229D01*
X143430198Y-103110487D01*
X142827647Y-102860286D01*
X142175215Y-102859716D01*
X141572229Y-103108865D01*
X141110487Y-103569802D01*
X140860286Y-104172353D01*
X140859716Y-104824785D01*
X137157055Y-104824785D01*
X137132523Y-93540128D01*
X137372353Y-93639714D01*
X138024785Y-93640284D01*
X138088919Y-93613784D01*
X144120313Y-93613784D01*
X144284311Y-94010689D01*
X144363400Y-94089916D01*
X144363400Y-110500000D01*
X144419470Y-110781885D01*
X144579145Y-111020855D01*
X151273304Y-117715014D01*
X150944235Y-117526519D01*
X150841185Y-117507682D01*
X150627000Y-117630344D01*
X150627000Y-118973000D01*
X151731868Y-118973000D01*
X151892739Y-118753945D01*
X151749964Y-118228279D01*
X151625486Y-118067196D01*
X152763400Y-119205110D01*
X152763400Y-123252179D01*
X152596540Y-123285370D01*
X152490543Y-122752486D01*
X152136120Y-122222053D01*
X151605687Y-121867630D01*
X150980000Y-121743173D01*
X150354313Y-121867630D01*
X150026473Y-122086685D01*
X149961942Y-121856980D01*
X149566317Y-121354078D01*
X149008355Y-121040856D01*
X148880434Y-121009876D01*
X148627000Y-121129223D01*
X148627000Y-122973000D01*
X148647000Y-122973000D01*
X148647000Y-123227000D01*
X148627000Y-123227000D01*
X148627000Y-125070777D01*
X148880434Y-125190124D01*
X149008355Y-125159144D01*
X149435958Y-124919102D01*
X149469457Y-125087514D01*
X149823880Y-125617947D01*
X150317543Y-125947801D01*
X150291869Y-126076870D01*
X150416327Y-126702558D01*
X150770750Y-127232990D01*
X151537010Y-127999249D01*
X152067442Y-128353673D01*
X152197240Y-128379491D01*
X152065263Y-128697326D01*
X152064737Y-129300030D01*
X152294896Y-129857058D01*
X152720701Y-130283606D01*
X153277326Y-130514737D01*
X153352294Y-130514802D01*
X153412331Y-130539732D01*
X154024981Y-130540266D01*
X154591200Y-130306309D01*
X155024787Y-129873479D01*
X155259732Y-129307669D01*
X155260266Y-128695019D01*
X155026309Y-128128800D01*
X154593479Y-127695213D01*
X154169918Y-127519335D01*
X154203673Y-127468817D01*
X154268797Y-127141416D01*
X154508817Y-127093673D01*
X155039249Y-126739249D01*
X155393673Y-126208817D01*
X155518130Y-125583130D01*
X155393673Y-124957442D01*
X155039249Y-124427010D01*
X154272990Y-123660750D01*
X154236600Y-123636435D01*
X154236600Y-118900000D01*
X154180530Y-118618115D01*
X154020855Y-118379145D01*
X152466495Y-116824785D01*
X152859716Y-116824785D01*
X153108865Y-117427771D01*
X153569802Y-117889513D01*
X154172353Y-118139714D01*
X154824785Y-118140284D01*
X155427771Y-117891135D01*
X155889513Y-117430198D01*
X156139714Y-116827647D01*
X156140284Y-116175215D01*
X155891135Y-115572229D01*
X155430198Y-115110487D01*
X154827647Y-114860286D01*
X154175215Y-114859716D01*
X153572229Y-115108865D01*
X153110487Y-115569802D01*
X152860286Y-116172353D01*
X152859716Y-116824785D01*
X152466495Y-116824785D01*
X145836600Y-110194890D01*
X145836600Y-94289823D01*
X146114622Y-94012286D01*
X146279313Y-93615668D01*
X146279687Y-93186216D01*
X146115689Y-92789311D01*
X145812286Y-92485378D01*
X145415668Y-92320687D01*
X144986216Y-92320313D01*
X144589311Y-92484311D01*
X144285378Y-92787714D01*
X144120687Y-93184332D01*
X144120313Y-93613784D01*
X138088919Y-93613784D01*
X138627771Y-93391135D01*
X139089513Y-92930198D01*
X139339714Y-92327647D01*
X139340284Y-91675215D01*
X139113766Y-91127000D01*
X147091139Y-91127000D01*
X146644722Y-91572637D01*
G36*
X157659716Y-92324785D02*
X157908865Y-92927771D01*
X158342620Y-93362284D01*
X158289311Y-93384311D01*
X157985378Y-93687714D01*
X157820687Y-94084332D01*
X157820313Y-94513784D01*
X157984311Y-94910689D01*
X158287714Y-95214622D01*
X158684332Y-95379313D01*
X158763400Y-95379382D01*
X158763400Y-96265424D01*
X158759387Y-96255736D01*
X158492532Y-96157073D01*
X157519605Y-97130000D01*
X158492532Y-98102927D01*
X158759387Y-98004264D01*
X158763400Y-97993462D01*
X158763400Y-98833408D01*
X158726894Y-98745057D01*
X158300022Y-98317438D01*
X158312927Y-98282532D01*
X157340000Y-97309605D01*
X156367073Y-98282532D01*
X156380164Y-98317938D01*
X156069801Y-98627759D01*
X155842241Y-98399801D01*
X156152562Y-98090022D01*
X156187468Y-98102927D01*
X157160395Y-97130000D01*
X157146253Y-97115858D01*
X157325858Y-96936253D01*
X157340000Y-96950395D01*
X158312927Y-95977468D01*
X158214264Y-95710613D01*
X157604539Y-95484092D01*
X157257070Y-95496950D01*
X157326814Y-95427206D01*
X157212534Y-95312926D01*
X157479387Y-95214264D01*
X157705908Y-94604539D01*
X157681856Y-93954540D01*
X157479387Y-93465736D01*
X157212532Y-93367073D01*
X156239605Y-94340000D01*
X156253748Y-94354143D01*
X156074143Y-94533748D01*
X156060000Y-94519605D01*
X156045858Y-94533748D01*
X155866253Y-94354143D01*
X155880395Y-94340000D01*
X154907468Y-93367073D01*
X154872062Y-93380164D01*
X154562241Y-93069801D01*
X154790199Y-92842241D01*
X155099978Y-93152562D01*
X155087073Y-93187468D01*
X156060000Y-94160395D01*
X157032927Y-93187468D01*
X157019836Y-93152062D01*
X157445278Y-92727363D01*
X157659816Y-92210698D01*
X157659716Y-92324785D01*
X157659716Y-92324785D01*
G37*
X157659716Y-92324785D02*
X157908865Y-92927771D01*
X158342620Y-93362284D01*
X158289311Y-93384311D01*
X157985378Y-93687714D01*
X157820687Y-94084332D01*
X157820313Y-94513784D01*
X157984311Y-94910689D01*
X158287714Y-95214622D01*
X158684332Y-95379313D01*
X158763400Y-95379382D01*
X158763400Y-96265424D01*
X158759387Y-96255736D01*
X158492532Y-96157073D01*
X157519605Y-97130000D01*
X158492532Y-98102927D01*
X158759387Y-98004264D01*
X158763400Y-97993462D01*
X158763400Y-98833408D01*
X158726894Y-98745057D01*
X158300022Y-98317438D01*
X158312927Y-98282532D01*
X157340000Y-97309605D01*
X156367073Y-98282532D01*
X156380164Y-98317938D01*
X156069801Y-98627759D01*
X155842241Y-98399801D01*
X156152562Y-98090022D01*
X156187468Y-98102927D01*
X157160395Y-97130000D01*
X157146253Y-97115858D01*
X157325858Y-96936253D01*
X157340000Y-96950395D01*
X158312927Y-95977468D01*
X158214264Y-95710613D01*
X157604539Y-95484092D01*
X157257070Y-95496950D01*
X157326814Y-95427206D01*
X157212534Y-95312926D01*
X157479387Y-95214264D01*
X157705908Y-94604539D01*
X157681856Y-93954540D01*
X157479387Y-93465736D01*
X157212532Y-93367073D01*
X156239605Y-94340000D01*
X156253748Y-94354143D01*
X156074143Y-94533748D01*
X156060000Y-94519605D01*
X156045858Y-94533748D01*
X155866253Y-94354143D01*
X155880395Y-94340000D01*
X154907468Y-93367073D01*
X154872062Y-93380164D01*
X154562241Y-93069801D01*
X154790199Y-92842241D01*
X155099978Y-93152562D01*
X155087073Y-93187468D01*
X156060000Y-94160395D01*
X157032927Y-93187468D01*
X157019836Y-93152062D01*
X157445278Y-92727363D01*
X157659816Y-92210698D01*
X157659716Y-92324785D01*
M02*
