G04 #@! TF.FileFunction,Copper,L1,Top,Signal*
%FSLAX46Y46*%
G04 Gerber Fmt 4.6, Leading zero omitted, Abs format (unit mm)*
G04 Created by KiCad (PCBNEW 4.0.1-stable) date 2018/04/09 0:13:58*
%MOMM*%
G01*
G04 APERTURE LIST*
%ADD10C,0.100000*%
%ADD11C,2.000000*%
%ADD12R,2.000000X1.700000*%
%ADD13C,2.000000*%
%ADD14O,2.000000X3.000000*%
%ADD15O,1.500000X2.000000*%
%ADD16O,2.000000X1.500000*%
%ADD17R,2.500000X0.500000*%
%ADD18C,0.889000*%
%ADD19C,0.203200*%
%ADD20C,0.254000*%
G04 APERTURE END LIST*
D10*
D11*
X148030000Y-92500000D03*
X150570000Y-92500000D03*
X157340000Y-99670000D03*
X157340000Y-97130000D03*
X152260000Y-99670000D03*
X152260000Y-97130000D03*
X154800000Y-99670000D03*
X154800000Y-97130000D03*
X153520000Y-91800000D03*
X156060000Y-91800000D03*
X153520000Y-94340000D03*
X156060000Y-94340000D03*
D12*
X140900000Y-92500000D03*
X144900000Y-92500000D03*
D13*
X153146447Y-124846447D02*
X153853553Y-125553553D01*
X143146447Y-125553553D02*
X143853553Y-124846447D01*
D14*
X148500000Y-123100000D03*
D13*
X151956447Y-126106447D02*
X152663553Y-126813553D01*
D14*
X145960000Y-123920000D03*
X150980000Y-123920000D03*
D13*
X144336447Y-126813553D02*
X145043553Y-126106447D01*
D15*
X146500000Y-119100000D03*
X150500000Y-119100000D03*
D16*
X157100000Y-108500000D03*
X157100000Y-112500000D03*
D15*
X148500000Y-119100000D03*
D16*
X157100000Y-110500000D03*
D17*
X139450000Y-95690000D03*
X139450000Y-96960000D03*
X139450000Y-98230000D03*
X139450000Y-99500000D03*
X147350000Y-99500000D03*
X147350000Y-98230000D03*
X147350000Y-96960000D03*
X147350000Y-95690000D03*
D18*
X147700000Y-104800000D03*
X152600000Y-114700000D03*
X157100000Y-122000000D03*
X156900000Y-131700000D03*
X154000000Y-134600000D03*
X142900000Y-134700000D03*
X139500000Y-131600000D03*
X152800000Y-108500000D03*
X159000000Y-104900000D03*
X143500000Y-121700000D03*
X139450000Y-111700000D03*
X139450000Y-101400000D03*
X149600000Y-93500000D03*
X149600000Y-95200000D03*
X150600000Y-112500000D03*
X150600000Y-98000000D03*
X158900000Y-94300000D03*
X153900000Y-101800000D03*
X149300000Y-100700000D03*
X152500000Y-92700000D03*
X154800000Y-95800000D03*
X145200000Y-93400000D03*
D19*
X157100000Y-122000000D02*
X157100000Y-114700000D01*
X154000000Y-134600000D02*
X156900000Y-131700000D01*
X142600000Y-134700000D02*
X142900000Y-134700000D01*
X139500000Y-131600000D02*
X142600000Y-134700000D01*
X157100000Y-108500000D02*
X152800000Y-108500000D01*
X143500000Y-121700000D02*
X143500000Y-121800000D01*
X139450000Y-99500000D02*
X139450000Y-101400000D01*
X139450000Y-101400000D02*
X139450000Y-111700000D01*
X139450000Y-111700000D02*
X139450000Y-120050000D01*
X147200000Y-121800000D02*
X148500000Y-123100000D01*
X141200000Y-121800000D02*
X143500000Y-121800000D01*
X143500000Y-121800000D02*
X147200000Y-121800000D01*
X139450000Y-120050000D02*
X141200000Y-121800000D01*
X157340000Y-97130000D02*
X158230000Y-97130000D01*
X158230000Y-97130000D02*
X159000000Y-97900000D01*
X159000000Y-107400000D02*
X157900000Y-108500000D01*
X159000000Y-97900000D02*
X159000000Y-104900000D01*
X159000000Y-104900000D02*
X159000000Y-107400000D01*
X157900000Y-108500000D02*
X157100000Y-108500000D01*
X157100000Y-108500000D02*
X158100000Y-108500000D01*
X150500000Y-116100000D02*
X150500000Y-119100000D01*
X151900000Y-114700000D02*
X150500000Y-116100000D01*
X157100000Y-114700000D02*
X152600000Y-114700000D01*
X152600000Y-114700000D02*
X151900000Y-114700000D01*
X158900000Y-112900000D02*
X157100000Y-114700000D01*
X158900000Y-109300000D02*
X158900000Y-112900000D01*
X158100000Y-108500000D02*
X158900000Y-109300000D01*
X150500000Y-119100000D02*
X150500000Y-121100000D01*
X150500000Y-121100000D02*
X148500000Y-123100000D01*
X156060000Y-94340000D02*
X156060000Y-95850000D01*
X156060000Y-95850000D02*
X157340000Y-97130000D01*
X139450000Y-95690000D02*
X140490000Y-95690000D01*
X140490000Y-95690000D02*
X143800000Y-99000000D01*
X143800000Y-99000000D02*
X143800000Y-101500000D01*
X143800000Y-101500000D02*
X145000000Y-102700000D01*
X145000000Y-102700000D02*
X155600000Y-102700000D01*
X155600000Y-102700000D02*
X157340000Y-100960000D01*
X157340000Y-100960000D02*
X157340000Y-99670000D01*
X147350000Y-98230000D02*
X149600000Y-98230000D01*
X149600000Y-98230000D02*
X149600000Y-98200000D01*
X150570000Y-92500000D02*
X150570000Y-92530000D01*
X150570000Y-92530000D02*
X149600000Y-93500000D01*
X149600000Y-95200000D02*
X149600000Y-98200000D01*
X149600000Y-98200000D02*
X149600000Y-99300000D01*
X149600000Y-99300000D02*
X149970000Y-99670000D01*
X149970000Y-99670000D02*
X152260000Y-99670000D01*
X152260000Y-97130000D02*
X151470000Y-97130000D01*
X151470000Y-97130000D02*
X150600000Y-98000000D01*
X157100000Y-112500000D02*
X150600000Y-112500000D01*
X150600000Y-112500000D02*
X148400000Y-112500000D01*
X146500000Y-114400000D02*
X146500000Y-119100000D01*
X148400000Y-112500000D02*
X146500000Y-114400000D01*
X153520000Y-94340000D02*
X153520000Y-95870000D01*
X153520000Y-95870000D02*
X152260000Y-97130000D01*
X147350000Y-94800000D02*
X147350000Y-94750000D01*
X147350000Y-94750000D02*
X147760000Y-94340000D01*
X147760000Y-94340000D02*
X153520000Y-94340000D01*
X147350000Y-95690000D02*
X147350000Y-94800000D01*
X141000000Y-94100000D02*
X141000000Y-92600000D01*
X141300000Y-94400000D02*
X141000000Y-94100000D01*
X147000000Y-94400000D02*
X141300000Y-94400000D01*
X147350000Y-94750000D02*
X147000000Y-94400000D01*
X141000000Y-92600000D02*
X140900000Y-92500000D01*
X156060000Y-91800000D02*
X156400000Y-91800000D01*
X156400000Y-91800000D02*
X158900000Y-94300000D01*
X147350000Y-96960000D02*
X145240000Y-96960000D01*
X154800000Y-100900000D02*
X154800000Y-99670000D01*
X153900000Y-101800000D02*
X154800000Y-100900000D01*
X145600000Y-101800000D02*
X153900000Y-101800000D01*
X145000000Y-101200000D02*
X145600000Y-101800000D01*
X145000000Y-97200000D02*
X145000000Y-101200000D01*
X145240000Y-96960000D02*
X145000000Y-97200000D01*
X147350000Y-99500000D02*
X147350000Y-99650000D01*
X147350000Y-99650000D02*
X148400000Y-100700000D01*
X148400000Y-100700000D02*
X149300000Y-100700000D01*
X153520000Y-91800000D02*
X153400000Y-91800000D01*
X153400000Y-91800000D02*
X152500000Y-92700000D01*
X154800000Y-95800000D02*
X154800000Y-97130000D01*
X139450000Y-96960000D02*
X140360000Y-96960000D01*
X140360000Y-96960000D02*
X142600000Y-99200000D01*
X142600000Y-99200000D02*
X142600000Y-102000000D01*
X142600000Y-102000000D02*
X144800000Y-104200000D01*
X144800000Y-104200000D02*
X144800000Y-108600000D01*
X144800000Y-108600000D02*
X146700000Y-110500000D01*
X146700000Y-110500000D02*
X157100000Y-110500000D01*
X139450000Y-98230000D02*
X140430000Y-98230000D01*
X140430000Y-98230000D02*
X141300000Y-99100000D01*
X147700000Y-120900000D02*
X148500000Y-120100000D01*
X141500000Y-120900000D02*
X147700000Y-120900000D01*
X140600000Y-120000000D02*
X141500000Y-120900000D01*
X140600000Y-103400000D02*
X140600000Y-120000000D01*
X141300000Y-102700000D02*
X140600000Y-103400000D01*
X141300000Y-99100000D02*
X141300000Y-102700000D01*
X148500000Y-120100000D02*
X148500000Y-119100000D01*
X139450000Y-98230000D02*
X138470000Y-98230000D01*
X148500000Y-119800000D02*
X148500000Y-119100000D01*
X144900000Y-92500000D02*
X144900000Y-93100000D01*
X144900000Y-93100000D02*
X145200000Y-93400000D01*
X144900000Y-92500000D02*
X148030000Y-92500000D01*
D20*
G36*
X139252560Y-93350000D02*
X139296838Y-93585317D01*
X139435910Y-93801441D01*
X139648110Y-93946431D01*
X139900000Y-93997440D01*
X140263400Y-93997440D01*
X140263400Y-94100000D01*
X140319470Y-94381885D01*
X140479145Y-94620855D01*
X140650850Y-94792560D01*
X138200000Y-94792560D01*
X137964683Y-94836838D01*
X137748559Y-94975910D01*
X137603569Y-95188110D01*
X137552560Y-95440000D01*
X137552560Y-95940000D01*
X137596838Y-96175317D01*
X137693817Y-96326027D01*
X137603569Y-96458110D01*
X137552560Y-96710000D01*
X137552560Y-97210000D01*
X137596838Y-97445317D01*
X137693817Y-97596027D01*
X137603569Y-97728110D01*
X137552560Y-97980000D01*
X137552560Y-98480000D01*
X137596838Y-98715317D01*
X137690736Y-98861239D01*
X137661673Y-98890302D01*
X137565000Y-99123691D01*
X137565000Y-99216250D01*
X137723750Y-99375000D01*
X139323000Y-99375000D01*
X139323000Y-99353000D01*
X139577000Y-99353000D01*
X139577000Y-99375000D01*
X139597000Y-99375000D01*
X139597000Y-99625000D01*
X139577000Y-99625000D01*
X139577000Y-100226250D01*
X139735750Y-100385000D01*
X140563400Y-100385000D01*
X140563400Y-102394890D01*
X140079145Y-102879145D01*
X139919470Y-103118115D01*
X139863400Y-103400000D01*
X139863400Y-120000000D01*
X139919470Y-120281885D01*
X140079145Y-120520855D01*
X140979145Y-121420855D01*
X141218115Y-121580530D01*
X141500000Y-121636600D01*
X147211427Y-121636600D01*
X147038058Y-121856980D01*
X146964044Y-122120440D01*
X146585687Y-121867630D01*
X145960000Y-121743173D01*
X145334313Y-121867630D01*
X144803880Y-122222053D01*
X144449457Y-122752486D01*
X144345743Y-123273890D01*
X143883130Y-123181870D01*
X143257442Y-123306327D01*
X142727010Y-123660751D01*
X141960750Y-124427010D01*
X141606327Y-124957442D01*
X141481869Y-125583130D01*
X141606327Y-126208818D01*
X141960750Y-126739250D01*
X142491182Y-127093673D01*
X142731202Y-127141416D01*
X142796327Y-127468818D01*
X142830231Y-127519559D01*
X142408800Y-127693691D01*
X141975213Y-128126521D01*
X141740268Y-128692331D01*
X141739734Y-129304981D01*
X141973691Y-129871200D01*
X142406521Y-130304787D01*
X142972331Y-130539732D01*
X143584981Y-130540266D01*
X143645650Y-130515198D01*
X143720030Y-130515263D01*
X144277058Y-130285104D01*
X144703606Y-129859299D01*
X144843322Y-129522825D01*
X145859542Y-129522825D01*
X146260612Y-130493486D01*
X147002607Y-131236778D01*
X147972568Y-131639541D01*
X149022825Y-131640458D01*
X149993486Y-131239388D01*
X150736778Y-130497393D01*
X151139541Y-129527432D01*
X151140458Y-128477175D01*
X150739388Y-127506514D01*
X149997393Y-126763222D01*
X149027432Y-126360459D01*
X147977175Y-126359542D01*
X147006514Y-126760612D01*
X146263222Y-127502607D01*
X145860459Y-128472568D01*
X145859542Y-129522825D01*
X144843322Y-129522825D01*
X144934737Y-129302674D01*
X144935263Y-128699970D01*
X144802838Y-128379476D01*
X144932558Y-128353673D01*
X145462990Y-127999250D01*
X146229249Y-127232990D01*
X146583673Y-126702558D01*
X146708130Y-126076870D01*
X146675418Y-125912414D01*
X147116120Y-125617947D01*
X147470543Y-125087514D01*
X147510069Y-124888803D01*
X147991645Y-125159144D01*
X148119566Y-125190124D01*
X148373000Y-125070777D01*
X148373000Y-123227000D01*
X148353000Y-123227000D01*
X148353000Y-122973000D01*
X148373000Y-122973000D01*
X148373000Y-122953000D01*
X148627000Y-122953000D01*
X148627000Y-122973000D01*
X148647000Y-122973000D01*
X148647000Y-123227000D01*
X148627000Y-123227000D01*
X148627000Y-125070777D01*
X148880434Y-125190124D01*
X149008355Y-125159144D01*
X149435958Y-124919102D01*
X149469457Y-125087514D01*
X149823880Y-125617947D01*
X150317543Y-125947801D01*
X150291869Y-126076870D01*
X150416327Y-126702558D01*
X150770750Y-127232990D01*
X151537010Y-127999249D01*
X152067442Y-128353673D01*
X152197240Y-128379491D01*
X152065263Y-128697326D01*
X152064737Y-129300030D01*
X152294896Y-129857058D01*
X152720701Y-130283606D01*
X153277326Y-130514737D01*
X153352294Y-130514802D01*
X153412331Y-130539732D01*
X154024981Y-130540266D01*
X154591200Y-130306309D01*
X155024787Y-129873479D01*
X155259732Y-129307669D01*
X155260266Y-128695019D01*
X155026309Y-128128800D01*
X154593479Y-127695213D01*
X154169918Y-127519335D01*
X154203673Y-127468817D01*
X154268797Y-127141416D01*
X154508817Y-127093673D01*
X155039249Y-126739249D01*
X155393673Y-126208817D01*
X155518130Y-125583130D01*
X155393673Y-124957442D01*
X155039249Y-124427010D01*
X154272990Y-123660750D01*
X153742558Y-123306327D01*
X153116870Y-123181869D01*
X152596540Y-123285370D01*
X152490543Y-122752486D01*
X152136120Y-122222053D01*
X151605687Y-121867630D01*
X150980000Y-121743173D01*
X150354313Y-121867630D01*
X150026473Y-122086685D01*
X149961942Y-121856980D01*
X149566317Y-121354078D01*
X149008355Y-121040856D01*
X148880434Y-121009876D01*
X148627002Y-121129222D01*
X148627002Y-121014708D01*
X148967712Y-120673998D01*
X149030017Y-120661605D01*
X149479343Y-120361375D01*
X149512638Y-120311546D01*
X149583106Y-120402736D01*
X150055765Y-120673481D01*
X150158815Y-120692318D01*
X150373000Y-120569656D01*
X150373000Y-119227000D01*
X150627000Y-119227000D01*
X150627000Y-120569656D01*
X150841185Y-120692318D01*
X150944235Y-120673481D01*
X151416894Y-120402736D01*
X151749964Y-119971721D01*
X151892739Y-119446055D01*
X151731868Y-119227000D01*
X150627000Y-119227000D01*
X150373000Y-119227000D01*
X150353000Y-119227000D01*
X150353000Y-118973000D01*
X150373000Y-118973000D01*
X150373000Y-117630344D01*
X150627000Y-117630344D01*
X150627000Y-118973000D01*
X151731868Y-118973000D01*
X151892739Y-118753945D01*
X151749964Y-118228279D01*
X151416894Y-117797264D01*
X150944235Y-117526519D01*
X150841185Y-117507682D01*
X150627000Y-117630344D01*
X150373000Y-117630344D01*
X150158815Y-117507682D01*
X150055765Y-117526519D01*
X149583106Y-117797264D01*
X149512638Y-117888454D01*
X149479343Y-117838625D01*
X149030017Y-117538395D01*
X148500000Y-117432968D01*
X147969983Y-117538395D01*
X147520657Y-117838625D01*
X147500000Y-117869540D01*
X147479343Y-117838625D01*
X147236600Y-117676429D01*
X147236600Y-116824785D01*
X152859716Y-116824785D01*
X153108865Y-117427771D01*
X153569802Y-117889513D01*
X154172353Y-118139714D01*
X154824785Y-118140284D01*
X155427771Y-117891135D01*
X155889513Y-117430198D01*
X156139714Y-116827647D01*
X156140284Y-116175215D01*
X155891135Y-115572229D01*
X155430198Y-115110487D01*
X154827647Y-114860286D01*
X154175215Y-114859716D01*
X153572229Y-115108865D01*
X153110487Y-115569802D01*
X152860286Y-116172353D01*
X152859716Y-116824785D01*
X147236600Y-116824785D01*
X147236600Y-114705110D01*
X148705110Y-113236600D01*
X149810002Y-113236600D01*
X149987714Y-113414622D01*
X150384332Y-113579313D01*
X150813784Y-113579687D01*
X151210689Y-113415689D01*
X151390091Y-113236600D01*
X155676429Y-113236600D01*
X155838625Y-113479343D01*
X156287951Y-113779573D01*
X156817968Y-113885000D01*
X157382032Y-113885000D01*
X157912049Y-113779573D01*
X158361375Y-113479343D01*
X158661605Y-113030017D01*
X158767032Y-112500000D01*
X158661605Y-111969983D01*
X158361375Y-111520657D01*
X158330460Y-111500000D01*
X158361375Y-111479343D01*
X158661605Y-111030017D01*
X158767032Y-110500000D01*
X158661605Y-109969983D01*
X158361375Y-109520657D01*
X158311546Y-109487362D01*
X158402736Y-109416894D01*
X158673481Y-108944235D01*
X158692318Y-108841185D01*
X158569656Y-108627000D01*
X157227000Y-108627000D01*
X157227000Y-108647000D01*
X156973000Y-108647000D01*
X156973000Y-108627000D01*
X155630344Y-108627000D01*
X155507682Y-108841185D01*
X155526519Y-108944235D01*
X155797264Y-109416894D01*
X155888454Y-109487362D01*
X155838625Y-109520657D01*
X155676429Y-109763400D01*
X147005110Y-109763400D01*
X145536600Y-108294890D01*
X145536600Y-108158815D01*
X155507682Y-108158815D01*
X155630344Y-108373000D01*
X156973000Y-108373000D01*
X156973000Y-107268132D01*
X157227000Y-107268132D01*
X157227000Y-108373000D01*
X158569656Y-108373000D01*
X158692318Y-108158815D01*
X158673481Y-108055765D01*
X158402736Y-107583106D01*
X157971721Y-107250036D01*
X157446055Y-107107261D01*
X157227000Y-107268132D01*
X156973000Y-107268132D01*
X156753945Y-107107261D01*
X156228279Y-107250036D01*
X155797264Y-107583106D01*
X155526519Y-108055765D01*
X155507682Y-108158815D01*
X145536600Y-108158815D01*
X145536600Y-104200000D01*
X145480530Y-103918115D01*
X145320855Y-103679145D01*
X145078310Y-103436600D01*
X153243922Y-103436600D01*
X153110487Y-103569802D01*
X152860286Y-104172353D01*
X152859716Y-104824785D01*
X153108865Y-105427771D01*
X153569802Y-105889513D01*
X154172353Y-106139714D01*
X154824785Y-106140284D01*
X155427771Y-105891135D01*
X155889513Y-105430198D01*
X156139714Y-104827647D01*
X156140284Y-104175215D01*
X155891135Y-103572229D01*
X155729941Y-103410753D01*
X155881885Y-103380530D01*
X156120855Y-103220855D01*
X157860855Y-101480855D01*
X157973489Y-101312286D01*
X158020530Y-101241885D01*
X158038735Y-101150361D01*
X158264943Y-101056894D01*
X158725278Y-100597363D01*
X158974716Y-99996648D01*
X158975284Y-99346205D01*
X158726894Y-98745057D01*
X158300022Y-98317438D01*
X158312927Y-98282532D01*
X157340000Y-97309605D01*
X156367073Y-98282532D01*
X156380164Y-98317938D01*
X156069801Y-98627759D01*
X155842241Y-98399801D01*
X156152562Y-98090022D01*
X156187468Y-98102927D01*
X157160395Y-97130000D01*
X157519605Y-97130000D01*
X158492532Y-98102927D01*
X158759387Y-98004264D01*
X158985908Y-97394539D01*
X158961856Y-96744540D01*
X158759387Y-96255736D01*
X158492532Y-96157073D01*
X157519605Y-97130000D01*
X157160395Y-97130000D01*
X157146253Y-97115858D01*
X157325858Y-96936253D01*
X157340000Y-96950395D01*
X158312927Y-95977468D01*
X158214264Y-95710613D01*
X157604539Y-95484092D01*
X157257070Y-95496950D01*
X157326814Y-95427206D01*
X157212534Y-95312926D01*
X157479387Y-95214264D01*
X157705908Y-94604539D01*
X157688351Y-94130061D01*
X157820532Y-94262242D01*
X157820313Y-94513784D01*
X157984311Y-94910689D01*
X158287714Y-95214622D01*
X158684332Y-95379313D01*
X159113784Y-95379687D01*
X159510689Y-95215689D01*
X159814622Y-94912286D01*
X159881156Y-94752056D01*
X159924050Y-114483363D01*
X159627647Y-114360286D01*
X158975215Y-114359716D01*
X158372229Y-114608865D01*
X157910487Y-115069802D01*
X157660286Y-115672353D01*
X157659716Y-116324785D01*
X157908865Y-116927771D01*
X158369802Y-117389513D01*
X158972353Y-117639714D01*
X159624785Y-117640284D01*
X159930638Y-117513908D01*
X159967567Y-134501433D01*
X159627647Y-134360286D01*
X158975215Y-134359716D01*
X158372229Y-134608865D01*
X157910487Y-135069802D01*
X157660286Y-135672353D01*
X157659716Y-136324785D01*
X157886234Y-136873000D01*
X139113264Y-136873000D01*
X139339714Y-136327647D01*
X139340284Y-135675215D01*
X139091135Y-135072229D01*
X138630198Y-134610487D01*
X138027647Y-134360286D01*
X137375215Y-134359716D01*
X137221399Y-134423271D01*
X137184744Y-117561812D01*
X137372353Y-117639714D01*
X138024785Y-117640284D01*
X138627771Y-117391135D01*
X139089513Y-116930198D01*
X139339714Y-116327647D01*
X139340284Y-115675215D01*
X139091135Y-115072229D01*
X138630198Y-114610487D01*
X138027647Y-114360286D01*
X137375215Y-114359716D01*
X137177960Y-114441220D01*
X137146097Y-99783750D01*
X137565000Y-99783750D01*
X137565000Y-99876309D01*
X137661673Y-100109698D01*
X137840301Y-100288327D01*
X138073690Y-100385000D01*
X139164250Y-100385000D01*
X139323000Y-100226250D01*
X139323000Y-99625000D01*
X137723750Y-99625000D01*
X137565000Y-99783750D01*
X137146097Y-99783750D01*
X137132523Y-93540128D01*
X137372353Y-93639714D01*
X138024785Y-93640284D01*
X138627771Y-93391135D01*
X139089513Y-92930198D01*
X139252560Y-92537537D01*
X139252560Y-93350000D01*
X139252560Y-93350000D01*
G37*
X139252560Y-93350000D02*
X139296838Y-93585317D01*
X139435910Y-93801441D01*
X139648110Y-93946431D01*
X139900000Y-93997440D01*
X140263400Y-93997440D01*
X140263400Y-94100000D01*
X140319470Y-94381885D01*
X140479145Y-94620855D01*
X140650850Y-94792560D01*
X138200000Y-94792560D01*
X137964683Y-94836838D01*
X137748559Y-94975910D01*
X137603569Y-95188110D01*
X137552560Y-95440000D01*
X137552560Y-95940000D01*
X137596838Y-96175317D01*
X137693817Y-96326027D01*
X137603569Y-96458110D01*
X137552560Y-96710000D01*
X137552560Y-97210000D01*
X137596838Y-97445317D01*
X137693817Y-97596027D01*
X137603569Y-97728110D01*
X137552560Y-97980000D01*
X137552560Y-98480000D01*
X137596838Y-98715317D01*
X137690736Y-98861239D01*
X137661673Y-98890302D01*
X137565000Y-99123691D01*
X137565000Y-99216250D01*
X137723750Y-99375000D01*
X139323000Y-99375000D01*
X139323000Y-99353000D01*
X139577000Y-99353000D01*
X139577000Y-99375000D01*
X139597000Y-99375000D01*
X139597000Y-99625000D01*
X139577000Y-99625000D01*
X139577000Y-100226250D01*
X139735750Y-100385000D01*
X140563400Y-100385000D01*
X140563400Y-102394890D01*
X140079145Y-102879145D01*
X139919470Y-103118115D01*
X139863400Y-103400000D01*
X139863400Y-120000000D01*
X139919470Y-120281885D01*
X140079145Y-120520855D01*
X140979145Y-121420855D01*
X141218115Y-121580530D01*
X141500000Y-121636600D01*
X147211427Y-121636600D01*
X147038058Y-121856980D01*
X146964044Y-122120440D01*
X146585687Y-121867630D01*
X145960000Y-121743173D01*
X145334313Y-121867630D01*
X144803880Y-122222053D01*
X144449457Y-122752486D01*
X144345743Y-123273890D01*
X143883130Y-123181870D01*
X143257442Y-123306327D01*
X142727010Y-123660751D01*
X141960750Y-124427010D01*
X141606327Y-124957442D01*
X141481869Y-125583130D01*
X141606327Y-126208818D01*
X141960750Y-126739250D01*
X142491182Y-127093673D01*
X142731202Y-127141416D01*
X142796327Y-127468818D01*
X142830231Y-127519559D01*
X142408800Y-127693691D01*
X141975213Y-128126521D01*
X141740268Y-128692331D01*
X141739734Y-129304981D01*
X141973691Y-129871200D01*
X142406521Y-130304787D01*
X142972331Y-130539732D01*
X143584981Y-130540266D01*
X143645650Y-130515198D01*
X143720030Y-130515263D01*
X144277058Y-130285104D01*
X144703606Y-129859299D01*
X144843322Y-129522825D01*
X145859542Y-129522825D01*
X146260612Y-130493486D01*
X147002607Y-131236778D01*
X147972568Y-131639541D01*
X149022825Y-131640458D01*
X149993486Y-131239388D01*
X150736778Y-130497393D01*
X151139541Y-129527432D01*
X151140458Y-128477175D01*
X150739388Y-127506514D01*
X149997393Y-126763222D01*
X149027432Y-126360459D01*
X147977175Y-126359542D01*
X147006514Y-126760612D01*
X146263222Y-127502607D01*
X145860459Y-128472568D01*
X145859542Y-129522825D01*
X144843322Y-129522825D01*
X144934737Y-129302674D01*
X144935263Y-128699970D01*
X144802838Y-128379476D01*
X144932558Y-128353673D01*
X145462990Y-127999250D01*
X146229249Y-127232990D01*
X146583673Y-126702558D01*
X146708130Y-126076870D01*
X146675418Y-125912414D01*
X147116120Y-125617947D01*
X147470543Y-125087514D01*
X147510069Y-124888803D01*
X147991645Y-125159144D01*
X148119566Y-125190124D01*
X148373000Y-125070777D01*
X148373000Y-123227000D01*
X148353000Y-123227000D01*
X148353000Y-122973000D01*
X148373000Y-122973000D01*
X148373000Y-122953000D01*
X148627000Y-122953000D01*
X148627000Y-122973000D01*
X148647000Y-122973000D01*
X148647000Y-123227000D01*
X148627000Y-123227000D01*
X148627000Y-125070777D01*
X148880434Y-125190124D01*
X149008355Y-125159144D01*
X149435958Y-124919102D01*
X149469457Y-125087514D01*
X149823880Y-125617947D01*
X150317543Y-125947801D01*
X150291869Y-126076870D01*
X150416327Y-126702558D01*
X150770750Y-127232990D01*
X151537010Y-127999249D01*
X152067442Y-128353673D01*
X152197240Y-128379491D01*
X152065263Y-128697326D01*
X152064737Y-129300030D01*
X152294896Y-129857058D01*
X152720701Y-130283606D01*
X153277326Y-130514737D01*
X153352294Y-130514802D01*
X153412331Y-130539732D01*
X154024981Y-130540266D01*
X154591200Y-130306309D01*
X155024787Y-129873479D01*
X155259732Y-129307669D01*
X155260266Y-128695019D01*
X155026309Y-128128800D01*
X154593479Y-127695213D01*
X154169918Y-127519335D01*
X154203673Y-127468817D01*
X154268797Y-127141416D01*
X154508817Y-127093673D01*
X155039249Y-126739249D01*
X155393673Y-126208817D01*
X155518130Y-125583130D01*
X155393673Y-124957442D01*
X155039249Y-124427010D01*
X154272990Y-123660750D01*
X153742558Y-123306327D01*
X153116870Y-123181869D01*
X152596540Y-123285370D01*
X152490543Y-122752486D01*
X152136120Y-122222053D01*
X151605687Y-121867630D01*
X150980000Y-121743173D01*
X150354313Y-121867630D01*
X150026473Y-122086685D01*
X149961942Y-121856980D01*
X149566317Y-121354078D01*
X149008355Y-121040856D01*
X148880434Y-121009876D01*
X148627002Y-121129222D01*
X148627002Y-121014708D01*
X148967712Y-120673998D01*
X149030017Y-120661605D01*
X149479343Y-120361375D01*
X149512638Y-120311546D01*
X149583106Y-120402736D01*
X150055765Y-120673481D01*
X150158815Y-120692318D01*
X150373000Y-120569656D01*
X150373000Y-119227000D01*
X150627000Y-119227000D01*
X150627000Y-120569656D01*
X150841185Y-120692318D01*
X150944235Y-120673481D01*
X151416894Y-120402736D01*
X151749964Y-119971721D01*
X151892739Y-119446055D01*
X151731868Y-119227000D01*
X150627000Y-119227000D01*
X150373000Y-119227000D01*
X150353000Y-119227000D01*
X150353000Y-118973000D01*
X150373000Y-118973000D01*
X150373000Y-117630344D01*
X150627000Y-117630344D01*
X150627000Y-118973000D01*
X151731868Y-118973000D01*
X151892739Y-118753945D01*
X151749964Y-118228279D01*
X151416894Y-117797264D01*
X150944235Y-117526519D01*
X150841185Y-117507682D01*
X150627000Y-117630344D01*
X150373000Y-117630344D01*
X150158815Y-117507682D01*
X150055765Y-117526519D01*
X149583106Y-117797264D01*
X149512638Y-117888454D01*
X149479343Y-117838625D01*
X149030017Y-117538395D01*
X148500000Y-117432968D01*
X147969983Y-117538395D01*
X147520657Y-117838625D01*
X147500000Y-117869540D01*
X147479343Y-117838625D01*
X147236600Y-117676429D01*
X147236600Y-116824785D01*
X152859716Y-116824785D01*
X153108865Y-117427771D01*
X153569802Y-117889513D01*
X154172353Y-118139714D01*
X154824785Y-118140284D01*
X155427771Y-117891135D01*
X155889513Y-117430198D01*
X156139714Y-116827647D01*
X156140284Y-116175215D01*
X155891135Y-115572229D01*
X155430198Y-115110487D01*
X154827647Y-114860286D01*
X154175215Y-114859716D01*
X153572229Y-115108865D01*
X153110487Y-115569802D01*
X152860286Y-116172353D01*
X152859716Y-116824785D01*
X147236600Y-116824785D01*
X147236600Y-114705110D01*
X148705110Y-113236600D01*
X149810002Y-113236600D01*
X149987714Y-113414622D01*
X150384332Y-113579313D01*
X150813784Y-113579687D01*
X151210689Y-113415689D01*
X151390091Y-113236600D01*
X155676429Y-113236600D01*
X155838625Y-113479343D01*
X156287951Y-113779573D01*
X156817968Y-113885000D01*
X157382032Y-113885000D01*
X157912049Y-113779573D01*
X158361375Y-113479343D01*
X158661605Y-113030017D01*
X158767032Y-112500000D01*
X158661605Y-111969983D01*
X158361375Y-111520657D01*
X158330460Y-111500000D01*
X158361375Y-111479343D01*
X158661605Y-111030017D01*
X158767032Y-110500000D01*
X158661605Y-109969983D01*
X158361375Y-109520657D01*
X158311546Y-109487362D01*
X158402736Y-109416894D01*
X158673481Y-108944235D01*
X158692318Y-108841185D01*
X158569656Y-108627000D01*
X157227000Y-108627000D01*
X157227000Y-108647000D01*
X156973000Y-108647000D01*
X156973000Y-108627000D01*
X155630344Y-108627000D01*
X155507682Y-108841185D01*
X155526519Y-108944235D01*
X155797264Y-109416894D01*
X155888454Y-109487362D01*
X155838625Y-109520657D01*
X155676429Y-109763400D01*
X147005110Y-109763400D01*
X145536600Y-108294890D01*
X145536600Y-108158815D01*
X155507682Y-108158815D01*
X155630344Y-108373000D01*
X156973000Y-108373000D01*
X156973000Y-107268132D01*
X157227000Y-107268132D01*
X157227000Y-108373000D01*
X158569656Y-108373000D01*
X158692318Y-108158815D01*
X158673481Y-108055765D01*
X158402736Y-107583106D01*
X157971721Y-107250036D01*
X157446055Y-107107261D01*
X157227000Y-107268132D01*
X156973000Y-107268132D01*
X156753945Y-107107261D01*
X156228279Y-107250036D01*
X155797264Y-107583106D01*
X155526519Y-108055765D01*
X155507682Y-108158815D01*
X145536600Y-108158815D01*
X145536600Y-104200000D01*
X145480530Y-103918115D01*
X145320855Y-103679145D01*
X145078310Y-103436600D01*
X153243922Y-103436600D01*
X153110487Y-103569802D01*
X152860286Y-104172353D01*
X152859716Y-104824785D01*
X153108865Y-105427771D01*
X153569802Y-105889513D01*
X154172353Y-106139714D01*
X154824785Y-106140284D01*
X155427771Y-105891135D01*
X155889513Y-105430198D01*
X156139714Y-104827647D01*
X156140284Y-104175215D01*
X155891135Y-103572229D01*
X155729941Y-103410753D01*
X155881885Y-103380530D01*
X156120855Y-103220855D01*
X157860855Y-101480855D01*
X157973489Y-101312286D01*
X158020530Y-101241885D01*
X158038735Y-101150361D01*
X158264943Y-101056894D01*
X158725278Y-100597363D01*
X158974716Y-99996648D01*
X158975284Y-99346205D01*
X158726894Y-98745057D01*
X158300022Y-98317438D01*
X158312927Y-98282532D01*
X157340000Y-97309605D01*
X156367073Y-98282532D01*
X156380164Y-98317938D01*
X156069801Y-98627759D01*
X155842241Y-98399801D01*
X156152562Y-98090022D01*
X156187468Y-98102927D01*
X157160395Y-97130000D01*
X157519605Y-97130000D01*
X158492532Y-98102927D01*
X158759387Y-98004264D01*
X158985908Y-97394539D01*
X158961856Y-96744540D01*
X158759387Y-96255736D01*
X158492532Y-96157073D01*
X157519605Y-97130000D01*
X157160395Y-97130000D01*
X157146253Y-97115858D01*
X157325858Y-96936253D01*
X157340000Y-96950395D01*
X158312927Y-95977468D01*
X158214264Y-95710613D01*
X157604539Y-95484092D01*
X157257070Y-95496950D01*
X157326814Y-95427206D01*
X157212534Y-95312926D01*
X157479387Y-95214264D01*
X157705908Y-94604539D01*
X157688351Y-94130061D01*
X157820532Y-94262242D01*
X157820313Y-94513784D01*
X157984311Y-94910689D01*
X158287714Y-95214622D01*
X158684332Y-95379313D01*
X159113784Y-95379687D01*
X159510689Y-95215689D01*
X159814622Y-94912286D01*
X159881156Y-94752056D01*
X159924050Y-114483363D01*
X159627647Y-114360286D01*
X158975215Y-114359716D01*
X158372229Y-114608865D01*
X157910487Y-115069802D01*
X157660286Y-115672353D01*
X157659716Y-116324785D01*
X157908865Y-116927771D01*
X158369802Y-117389513D01*
X158972353Y-117639714D01*
X159624785Y-117640284D01*
X159930638Y-117513908D01*
X159967567Y-134501433D01*
X159627647Y-134360286D01*
X158975215Y-134359716D01*
X158372229Y-134608865D01*
X157910487Y-135069802D01*
X157660286Y-135672353D01*
X157659716Y-136324785D01*
X157886234Y-136873000D01*
X139113264Y-136873000D01*
X139339714Y-136327647D01*
X139340284Y-135675215D01*
X139091135Y-135072229D01*
X138630198Y-134610487D01*
X138027647Y-134360286D01*
X137375215Y-134359716D01*
X137221399Y-134423271D01*
X137184744Y-117561812D01*
X137372353Y-117639714D01*
X138024785Y-117640284D01*
X138627771Y-117391135D01*
X139089513Y-116930198D01*
X139339714Y-116327647D01*
X139340284Y-115675215D01*
X139091135Y-115072229D01*
X138630198Y-114610487D01*
X138027647Y-114360286D01*
X137375215Y-114359716D01*
X137177960Y-114441220D01*
X137146097Y-99783750D01*
X137565000Y-99783750D01*
X137565000Y-99876309D01*
X137661673Y-100109698D01*
X137840301Y-100288327D01*
X138073690Y-100385000D01*
X139164250Y-100385000D01*
X139323000Y-100226250D01*
X139323000Y-99625000D01*
X137723750Y-99625000D01*
X137565000Y-99783750D01*
X137146097Y-99783750D01*
X137132523Y-93540128D01*
X137372353Y-93639714D01*
X138024785Y-93640284D01*
X138627771Y-93391135D01*
X139089513Y-92930198D01*
X139252560Y-92537537D01*
X139252560Y-93350000D01*
G36*
X155099978Y-93152562D02*
X155087073Y-93187468D01*
X156060000Y-94160395D01*
X156074143Y-94146253D01*
X156253748Y-94325858D01*
X156239605Y-94340000D01*
X156253748Y-94354143D01*
X156074143Y-94533748D01*
X156060000Y-94519605D01*
X156045858Y-94533748D01*
X155866253Y-94354143D01*
X155880395Y-94340000D01*
X154907468Y-93367073D01*
X154872062Y-93380164D01*
X154562241Y-93069801D01*
X154790199Y-92842241D01*
X155099978Y-93152562D01*
X155099978Y-93152562D01*
G37*
X155099978Y-93152562D02*
X155087073Y-93187468D01*
X156060000Y-94160395D01*
X156074143Y-94146253D01*
X156253748Y-94325858D01*
X156239605Y-94340000D01*
X156253748Y-94354143D01*
X156074143Y-94533748D01*
X156060000Y-94519605D01*
X156045858Y-94533748D01*
X155866253Y-94354143D01*
X155880395Y-94340000D01*
X154907468Y-93367073D01*
X154872062Y-93380164D01*
X154562241Y-93069801D01*
X154790199Y-92842241D01*
X155099978Y-93152562D01*
M02*
